<svg id="Capa_1" enable-background="new 0 0 512 512" height="512" viewBox="0 0 512 512" width="512" xmlns="http://www.w3.org/2000/svg"><g><g><path d="m214.602 63.252h-115.111c-50.81 0-91.999 41.189-91.999 91.999 0 50.81 41.189 91.999 91.999 91.999h115.112v-183.998z" fill="#bed8fb"/></g><path d="m132.449 63.252v92.748c0 30.376-24.624 55-55 55h-51.14c16.808 22.031 43.333 36.25 73.182 36.25h115.112v-183.998z" fill="#9dc6fb"/><g><path d="m459.602 448.748h-267.915c-8.284 0-15-6.716-15-15v-370.496h205.814c50.866 0 92.101 41.235 92.101 92.101v278.394c0 8.285-6.715 15.001-15 15.001z" fill="#cbe2ff"/></g><g><path d="m427.146 74.742c7.318 13.198 11.49 28.382 11.49 44.543v278.513c0 8.275-6.708 14.983-14.983 14.983h-246.966v20.983c0 8.275 6.708 14.983 14.983 14.983h267.949c8.275 0 14.983-6.708 14.983-14.983v-278.512c0-34.65-19.158-64.82-47.456-80.51z" fill="#bed8fb"/></g><path d="m317.989 245.163c-4.297-5.183-12.316-6.288-21.178-3.771-.846.24-1.736-.241-1.985-1.084-3.604-12.189-11.095-20.572-19.759-20.572-8.663 0-16.155 8.383-19.759 20.572-.249.843-1.139 1.325-1.985 1.084-8.862-2.517-16.881-1.412-21.178 3.771-7.195 8.68-1.23 25.497 13.325 37.562 9.854 8.169 19.569 11.029 29.596 11.029 10.028 0 19.742-2.86 29.596-11.029 14.557-12.065 20.522-28.882 13.327-37.562z" fill="#b3e59f"/><g><path d="m298.34 342.999c-7.164-.122-13.75 2.33-18.899 6.49-2.551 2.061-6.194 2.061-8.745 0-5.15-4.16-11.736-6.612-18.9-6.49-15.127.257-27.791 12.32-28.73 27.42-1.059 17.03 12.439 31.171 29.24 31.171 6.92 0 13.277-2.401 18.289-6.413 2.633-2.108 6.313-2.108 8.947 0 5.012 4.013 11.369 6.413 18.289 6.413 16.801 0 30.299-14.142 29.24-31.171-.94-15.1-13.604-27.163-28.731-27.42z" fill="#ffe07d"/></g><g><g><path d="m502.909 316.973-40.861-40.861-25.133 25.133 40.861 40.861c2.133 2.133 5.591 2.133 7.724 0l17.41-17.41c2.131-2.132 2.131-5.59-.001-7.723z" fill="#f4fbff"/></g></g><path d="m502.909 316.973-40.861-40.861-10.696 10.696 30.165 30.164c2.133 2.133 2.133 5.591 0 7.724l-10.575 10.575 6.834 6.834c2.133 2.133 5.591 2.133 7.724 0l17.41-17.41c2.131-2.131 2.131-5.589-.001-7.722z" fill="#e4f6ff"/><g><g><path d="m355.572 188.34 145.814 54.267c2.73 1.016 3.493 4.517 1.433 6.577l-92.833 92.833c-2.06 2.06-5.561 1.297-6.577-1.433l-54.267-145.814c-1.493-4.012 2.418-7.923 6.43-6.43z" fill="#f4fbff"/></g></g><path d="m501.386 242.607-145.814-54.267c-4.012-1.493-7.923 2.418-6.43 6.43l5.442 14.624 110.052 40.958c2.731 1.016 3.493 4.517 1.433 6.577l-68.355 68.355 5.695 15.301c1.016 2.73 4.517 3.493 6.577 1.433l92.833-92.833c2.061-2.061 1.298-5.562-1.433-6.578z" fill="#e4f6ff"/><path d="m242.502 155.388-17.104-16.728c-5.873-5.744-1.806-15.718 6.408-15.718h86.522c8.215 0 12.281 9.974 6.408 15.718l-17.104 16.728c-18.1 17.704-47.028 17.704-65.13 0z" fill="#80b4fb"/><path d="m121.685 121.589c-16.719-16.719-43.921-16.719-60.64 0-16.719 16.718-16.719 43.921 0 60.64 8.359 8.359 19.339 12.539 30.32 12.539 8.606 0 17.206-2.58 24.55-7.714l14.725 14.725c2.926 2.926 7.669 2.926 10.595 0 2.926-2.925 2.926-7.669 0-10.595l-14.725-14.725c11.686-16.715 10.086-39.959-4.825-54.87zm-50.045 50.045c-10.877-10.877-10.877-28.574 0-39.45 5.438-5.438 12.582-8.157 19.725-8.157s14.287 2.719 19.725 8.157c10.877 10.877 10.877 28.574 0 39.45-10.876 10.877-28.574 10.877-39.45 0z"/><path d="m474.602 372.952c-4.137 0-7.492 3.354-7.492 7.492v53.32c0 4.131-3.361 7.492-7.492 7.492h-205.65c-4.138 0-7.492 3.354-7.492 7.492 0 4.137 3.354 7.492 7.492 7.492h205.65c12.393 0 22.475-10.082 22.475-22.475v-53.32c.001-4.138-3.353-7.493-7.491-7.493z"/><path d="m300.205 233.012c-5.271-12.942-14.587-20.768-25.137-20.768s-19.867 7.825-25.137 20.768c-9.853-1.436-18.416 1.174-23.552 7.37-9.986 12.047-3.7 33.18 14.311 48.111 10.352 8.581 21.597 12.753 34.378 12.753s24.026-4.172 34.377-12.753c18.012-14.931 24.298-36.064 14.311-48.111-5.136-6.196-13.699-8.806-23.551-7.37zm-.322 43.946c-7.658 6.348-15.542 9.305-24.815 9.305s-17.158-2.957-24.815-9.305c-11.782-9.767-16.232-22.318-12.339-27.014 1.293-1.559 3.691-2.362 6.745-2.362 1.972 0 4.218.335 6.616 1.015 4.781 1.36 9.812-1.407 11.219-6.166 2.646-8.952 7.817-15.204 12.574-15.204s9.927 6.252 12.574 15.203c1.407 4.76 6.437 7.526 11.216 6.168 6.115-1.738 11.235-1.221 13.364 1.346 3.892 4.696-.557 17.247-12.339 27.014z"/><path d="m252.305 409.082c8.235 0 16.307-2.801 22.763-7.891 6.455 5.091 14.527 7.891 22.762 7.891 10.113 0 19.886-4.228 26.814-11.6 7.025-7.476 10.543-17.252 9.903-27.528-1.181-18.992-17.029-34.122-36.08-34.446-8.469-.13-16.764 2.654-23.399 7.886-6.634-5.232-14.9-8.015-23.399-7.886-19.051.324-34.899 15.454-36.08 34.446-.639 10.276 2.878 20.052 9.903 27.529 6.927 7.371 16.7 11.599 26.813 11.599zm-21.762-38.198c.699-11.244 10.09-20.203 21.38-20.394 5.11-.112 10.104 1.627 14.065 4.828 5.262 4.25 12.9 4.25 18.161-.001 3.961-3.2 8.944-4.938 14.064-4.827 11.29.192 20.681 9.15 21.381 20.395.379 6.105-1.704 11.907-5.868 16.337-4.168 4.435-9.813 6.877-15.895 6.877-5.004 0-9.709-1.65-13.607-4.77-2.696-2.159-5.925-3.238-9.156-3.238-3.23 0-6.46 1.079-9.155 3.237-3.898 3.121-8.603 4.77-13.607 4.77-6.083 0-11.727-2.442-15.895-6.877-4.164-4.43-6.248-10.232-5.868-16.337z"/><path d="m422.322 145.804c4.138 0 7.492-3.354 7.492-7.492 0-4.137-3.354-7.492-7.492-7.492h-59.549c-4.137 0-7.492 3.354-7.492 7.492s3.354 7.492 7.492 7.492z"/><path d="m422.322 383.688c4.138 0 7.492-3.354 7.492-7.492s-3.354-7.492-7.492-7.492h-59.549c-4.137 0-7.492 3.354-7.492 7.492 0 4.137 3.354 7.492 7.492 7.492z"/><path d="m508.206 311.676-28.642-28.642 28.558-28.558c2.779-2.779 3.938-6.729 3.101-10.569-.836-3.839-3.535-6.949-7.217-8.319l-21.912-8.155v-72.182c0-54.86-44.631-99.491-99.491-99.491h-283.112c-54.86.001-99.491 44.632-99.491 99.492s44.631 99.491 99.491 99.491h40.442c4.137 0 7.492-3.354 7.492-7.492s-3.354-7.492-7.492-7.492h-40.442c-46.598 0-84.507-37.91-84.507-84.508s37.91-84.507 84.507-84.507h69.704v363.02c0 12.393 10.082 22.475 22.475 22.475h26.684c4.138 0 7.492-3.354 7.492-7.492s-3.354-7.492-7.492-7.492h-26.684c-4.131 0-7.492-3.361-7.492-7.492v-363.019h198.424c46.598 0 84.507 37.91 84.507 84.508v66.605l-108.937-40.542c-4.635-1.725-9.688-.624-13.184 2.873-3.497 3.497-4.598 8.549-2.873 13.184l54.274 145.833c1.371 3.682 4.482 6.38 8.321 7.217 3.786.835 7.789-.311 10.567-3.102l28.557-28.557 28.642 28.642c2.525 2.525 5.842 3.787 9.159 3.787s6.634-1.262 9.159-3.787l17.409-17.41c2.447-2.447 3.794-5.699 3.794-9.159.003-3.461-1.345-6.714-3.791-9.16zm-99.672 21.199-50.471-135.615 135.615 50.471zm73.103 2.499-27.206-27.206 14.539-14.538 27.206 27.206z"/><g><path d="m275.068 176.166c-14.217 0-27.645-5.475-37.81-15.416l-17.104-16.728c-4.865-4.758-6.349-11.905-3.779-18.206 2.569-6.302 8.627-10.374 15.432-10.374h86.522c6.805 0 12.863 4.072 15.432 10.374s1.085 13.448-3.78 18.206l-17.104 16.728c-10.164 9.941-23.592 15.416-37.809 15.416zm-27.322-26.139c15.065 14.734 39.578 14.733 54.643 0l17.104-16.728c.531-.52.658-1.131.378-1.819s-.799-1.037-1.542-1.037h-86.522c-.743 0-1.262.349-1.542 1.037-.281.688-.154 1.3.377 1.819z"/></g></g></svg>