<svg id="Capa_1" enable-background="new 0 0 497 497" height="512" viewBox="0 0 497 497" width="512" xmlns="http://www.w3.org/2000/svg"><g><path d="m29.241 172.298v294.069c0 15.046 12.197 27.243 27.243 27.243h35.646l63.811-28.967 63.811 28.967h220.764c15.046 0 27.243-12.197 27.243-27.243v-294.069z" fill="#f9ed80"/><path d="m63.901 325.449c0-56.471 17.9-109.055 48.702-153.151h-83.362v294.068c0 15.046 12.197 27.243 27.243 27.243h33.791c-22.885-46.943-26.374-105.135-26.374-168.16z" fill="#f8d070"/><g fill="#90d3f1"><path d="m467.759 126.187h-438.518c-16.149 0-29.241 13.092-29.241 29.241v33.74c0 16.149 13.092 29.241 29.241 29.241h438.519c16.149 0 29.241-13.091 29.241-29.241v-33.74c-.001-16.149-13.093-29.241-29.242-29.241z"/><path d="m191.833 306.483h-71.783c-15.42 0-27.92 12.5-27.92 27.92v159.206h127.623v-159.206c0-15.42-12.5-27.92-27.92-27.92z"/><path d="m407.753 383.609v-89.206c0-15.42-12.5-27.92-27.92-27.92h-71.783c-15.42 0-27.92 12.5-27.92 27.92v89.206z"/></g><path d="m409.586 368.249h-131.289c-8.436 0-15.275 6.839-15.275 15.275v13.67c0 8.436 6.839 15.275 15.275 15.275h131.289c8.436 0 15.275-6.839 15.275-15.275v-13.67c0-8.436-6.839-15.275-15.275-15.275z" fill="#f9ed80"/><path d="m152.777 126.187h-123.536c-16.149 0-29.241 13.092-29.241 29.241v33.74c0 16.149 13.092 29.241 29.241 29.241h57.343c15.386-34.767 38.023-66.057 66.193-92.222z" fill="#59c2e7"/><path d="m248.5 3.391 44.985 69.025-44.985 69.025h-87.35c-38.992 0-70.329-32.293-68.978-71.47 1.287-37.318 32.633-66.58 69.973-66.58h86.355z" fill="#ff889e"/><path d="m404.829 74.814c-1.268 37.338-32.625 66.627-69.985 66.627h-86.344v-138.05h87.35c19.06 0 36.31 7.73 48.81 20.21 13.003 13.023 20.849 31.203 20.169 51.213z" fill="#59c2e7"/><path d="m152.777 107.82c0-39.738 14.879-76.148 39.59-104.429h-30.222c-37.34 0-68.686 29.262-69.973 66.58-1.296 37.562 27.463 68.776 64.202 71.288-2.354-10.794-3.597-21.977-3.597-33.439z" fill="#ff748f"/></g></svg>