<?xml version="1.0"?>
<svg xmlns="http://www.w3.org/2000/svg" id="Filled_cutting_stroke_Ex" data-name="Filled cutting stroke Ex" width="512" height="512" viewBox="0 0 512 512"><g><path d="M481.5657,234.0605,384,144l-16,32,64,72-72,24-4.6528-1.1632a40,40,0,0,0-42.9834,16.6177L312,288l-16,8h-8l-8-40H232l-8,40h-8l-16-5.647-.7026-1.1576a40,40,0,0,0-43.8931-18.0465L152,272,80,248l64-72-16-32-97.5657,90.06A20.0006,20.0006,0,0,0,24,248.7566v9.5621a20,20,0,0,0,12.751,18.64l118.498,46.0826A20,20,0,0,1,168,341.6813V352H344V341.6813a20,20,0,0,1,12.751-18.64l118.498-46.0826A20,20,0,0,0,488,258.3187v-9.5621A20.0006,20.0006,0,0,0,481.5657,234.0605Z" style="fill:#ffd4cf"/><path d="M344,496h0a29.8962,29.8962,0,0,0-13.3128-24.8752L320,464V416l6.7911-5.0933A50,50,0,0,0,345.82,361.1008L344,352l-11.757-7.0542a60,60,0,0,0-57.7025-2.216L256,352,237.46,342.73a60,60,0,0,0-57.7025,2.216L168,352l-1.82,9.1008a50,50,0,0,0,19.0291,49.8059L192,416v48l-10.6872,7.1248A29.8962,29.8962,0,0,0,168,496h0" style="fill:#fed672"/><path d="M328,168c0,53.0193-32.2355,96-72,96s-72-42.9807-72-96,32.2355-64,72-64S328,114.9807,328,168Z" style="fill:#ffd4cf"/><path d="M358.5923,80.1031a23.9837,23.9837,0,0,0,.792-13.4953,35.9927,35.9927,0,0,0-58.0576-34.5647C300.8848,32.027,300.4458,32,300,32a35.9868,35.9868,0,0,0-10.3989,1.5314,63.9928,63.9928,0,0,0-67.2022,0A35.9868,35.9868,0,0,0,212,32c-.45,0-.897.0139-1.3428.03a35.9935,35.9935,0,0,0-52.8149,47.62c-.1651.129-.3347.2517-.4973.3835-.4471-.0164-.8938-.034-1.345-.034a36,36,0,1,0,22.6616,63.9662c.4448.0163.89.0338,1.3384.0338a36.1936,36.1936,0,0,0,5.2378-.3938,24.0026,24.0026,0,0,0,44.4285,2.7258,63.9764,63.9764,0,0,0,74.2063-15.8755A35.9245,35.9245,0,0,0,332,144c.4487,0,.8936-.0175,1.3384-.0338a35.9948,35.9948,0,1,0,25.2539-63.8631Z" style="fill:#bcebf5"/><path d="M192,80l-64,64,16,32,40-8V144l10.5583-26.3957A40,40,0,0,0,195.3665,90.1Z" style="fill:#ffd4cf"/><path d="M320,80l64,64-16,32-40-8V144l-10.5583-26.3957A40,40,0,0,1,316.6335,90.1Z" style="fill:#ffd4cf"/><path d="M486.9912,228.1821,392.3384,140.81A43.9925,43.9925,0,0,0,367.957,73.6641Q368,72.8349,368,72V60a43.9951,43.9951,0,0,0-69.5859-35.7915c-2.1172.16-4.9268.4409-7.4356.8569a72.0151,72.0151,0,0,0-69.9531-.0024c-2.5176-.42-5.334-.7041-7.4561-.8657a43.9981,43.9981,0,0,0-50.0195-.7827l8.9,13.2958a27.9985,27.9985,0,0,1,33.168,1.5333,7.9961,7.9961,0,0,0,4.9629,1.7861,65.9521,65.9521,0,0,1,9.51,1.1611,8.004,8.004,0,0,0,6.5147-.855,55.9942,55.9942,0,0,1,58.789,0,8.0035,8.0035,0,0,0,6.5147.855,65.8294,65.8294,0,0,1,9.49-1.1484,8.0009,8.0009,0,0,0,4.97-1.7891A27.6748,27.6748,0,0,1,324,32a28.0314,28.0314,0,0,1,28,28V72a15.9072,15.9072,0,0,1-.9365,5.396,8,8,0,0,0,6.96,10.687A28.0741,28.0741,0,0,1,384,116a27.696,27.696,0,0,1-3.3594,13.3272L325.6572,74.3433A8,8,0,0,0,312.41,77.47l-3.3653,10.0991a48.0518,48.0518,0,0,0,.9688,33.0064l3.3152,8.2876a28.62,28.62,0,0,1-3.2068-3.4024,8.0006,8.0006,0,0,0-12.2325-.3149A56.0611,56.0611,0,0,1,256,144a55.4884,55.4884,0,0,1-23.0352-4.9561,7.9978,7.9978,0,0,0-10.5175,3.84,16.0026,16.0026,0,0,1-29.1526-.58l8.6916-21.7281a48.0563,48.0563,0,0,0,.97-33.0059L199.59,77.47a8,8,0,0,0-13.247-3.1269l-54.9805,54.981A28.0166,28.0166,0,0,1,156,88c.3281,0,.6543.0142,1.0469.0288a7.8781,7.8781,0,0,0,5.3144-1.7627l.4229-.3252a8,8,0,0,0,1.7568-10.6636,27.9943,27.9943,0,0,1,.17-30.8271l-13.2968-8.9a44.0469,44.0469,0,0,0-5.4092,37.5952,44.0267,44.0267,0,0,0-26.3533,67.6742L25.0078,228.1821A28.08,28.08,0,0,0,16,248.7568v9.562A27.8252,27.8252,0,0,0,33.8516,284.415L152.35,330.4971A11.9251,11.9251,0,0,1,160,341.6812v9.5263l-1.665,8.3247a58.2884,58.2884,0,0,0,22.0742,57.7744L184,420v39.7188l-7.125,4.75A37.8206,37.8206,0,0,0,160,496h16a21.8524,21.8524,0,0,1,9.75-18.2188l10.6875-7.125A7.9992,7.9992,0,0,0,200,464V416a7.999,7.999,0,0,0-3.2-6.4l-6.791-5.0933A42.21,42.21,0,0,1,174.0244,362.67l1.126-5.6308,8.7226-5.2334a51.756,51.756,0,0,1,50.0088-1.92l18.54,9.27a8.003,8.003,0,0,0,7.1562,0l18.54-9.27a51.7548,51.7548,0,0,1,50.0088,1.92l8.7226,5.2334,1.126,5.6308a42.21,42.21,0,0,1-15.9844,41.8369L315.2,409.6A7.999,7.999,0,0,0,312,416v48a7.9992,7.9992,0,0,0,3.5625,6.6562l10.6875,7.125A21.8524,21.8524,0,0,1,336,496h16a37.8206,37.8206,0,0,0-16.875-31.5312l-7.125-4.75V420l3.5908-2.6934a58.2884,58.2884,0,0,0,22.0742-57.7744L352,351.2075v-9.5263a11.9251,11.9251,0,0,1,7.65-11.1841l35.249-13.7075-5.7988-14.9122-35.249,13.7076a27.7978,27.7978,0,0,0-17.6162,22.4272,67.68,67.68,0,0,0-65.2735-2.4375L256,343.0557l-14.9619-7.481a67.6848,67.6848,0,0,0-65.2735,2.4376,27.798,27.798,0,0,0-17.6162-22.4273L39.65,269.5029A11.9251,11.9251,0,0,1,32,258.3188v-9.562a12.0357,12.0357,0,0,1,3.86-8.8178l97.5654-90.0606c.0791-.0722.1553-.146.2314-.2217l54.7783-54.7788a32.0432,32.0432,0,0,1-1.3046,19.7554l-10.5586,26.3955A8,8,0,0,0,176,144v17.4414l-33.5693,6.7139a8.0021,8.0021,0,0,0-4.41,2.53l-64,72A8,8,0,0,0,77.47,255.5894l72,24a8.0033,8.0033,0,0,0,4.4707.1718l3.4043-.851a31.848,31.848,0,0,1,35.1143,14.4379l.7031,1.1578a8.002,8.002,0,0,0,4.1758,3.3911l16,5.6469A7.9944,7.9944,0,0,0,216,304h8a8,8,0,0,0,7.8447-6.4312l5.6695-28.3473a63.2276,63.2276,0,0,0,36.9775.03l5.6636,28.3175A8,8,0,0,0,288,304h8a8,8,0,0,0,3.5781-.8447l16-8a8,8,0,0,0,3.08-2.72l.3613-.543a32.0771,32.0771,0,0,1,34.3877-13.294l4.6524,1.1631a8.0033,8.0033,0,0,0,4.4707-.1718l72-24a8,8,0,0,0,3.4492-12.9043l-64-72a8.0021,8.0021,0,0,0-4.41-2.53L336,161.4414V144a8,8,0,0,0-.5723-2.9712l-10.5586-26.3955a32.0357,32.0357,0,0,1-1.3046-19.7554l54.7783,54.7788c.0761.0757.1523.1495.2314.2217l97.5645,90.0606A12.0331,12.0331,0,0,1,480,248.7568v9.562a11.9251,11.9251,0,0,1-7.65,11.1841l-67.249,26.1524,5.7988,14.9121,67.249-26.1524A27.8252,27.8252,0,0,0,496,258.3188v-9.562A28.0768,28.0768,0,0,0,486.9912,228.1821ZM210.6191,40.03c.1114-.0015.2237-.0015.336-.0054C210.8916,40.0273,210.7773,40.0327,210.6191,40.03Zm90.4151.0073c.11.0034.22.0044.3291.0054C301.2021,40.0479,301.0957,40.0405,301.0342,40.0376ZM214.1318,234.417l-12.2636,10.2764a81.668,81.668,0,0,0,20.6645,17.85L217.4414,288,205.32,283.7471a47.7621,47.7621,0,0,0-51.8564-20.3594l-1.1446.2861L94.04,244.2471l54.1582-60.9283,28.1421-5.6283a123.9674,123.9674,0,0,0,14.1314,50.1083l14.082-7.5976C196.3408,204.98,192,186.9287,192,168v-4.2775a32.0044,32.0044,0,0,0,40.8232-7.5448,72.0126,72.0126,0,0,0,71-14.3745A43.4569,43.4569,0,0,0,320,150.3488V168c0,48.5234-28.71,88-64,88C240.6631,256,225.7949,248.335,214.1318,234.417Zm149.67-51.0982L417.96,244.2471l-58.2793,19.4267-2.3926-.5981a48.1114,48.1114,0,0,0-50.7236,18.6977l-12.0469,6.0235-5.0415-25.2085a83.5643,83.5643,0,0,0,23.8354-21.9063c12.8906-17.1869,20.6782-39.2681,22.3487-62.9915Z"/><path d="M288,195.978a27.9611,27.9611,0,0,1-15.5312-4.7177l8.875-13.3125a11.9693,11.9693,0,0,0,13.3124,0l8.875,13.3125A27.9611,27.9611,0,0,1,288,195.978Z"/><path d="M227.0938,195.9775a27.9569,27.9569,0,0,1-15.5313-4.7172l8.875-13.3125a11.9693,11.9693,0,0,0,13.3135,0l8.875,13.3134A27.9691,27.9691,0,0,1,227.0938,195.9775Z"/><circle cx="72" cy="72" r="24" style="fill:#fed672"/><path d="M72,104a32,32,0,1,1,32-32A32.0364,32.0364,0,0,1,72,104Zm0-48A16,16,0,1,0,88,72,16.0183,16.0183,0,0,0,72,56Z"/><circle cx="416" cy="432" r="24" style="fill:#fed672"/><path d="M416,464a32,32,0,1,1,32-32A32.0364,32.0364,0,0,1,416,464Zm0-48a16,16,0,1,0,16,16A16.0183,16.0183,0,0,0,416,416Z"/><rect x="248" y="456" width="16" height="16"/><path d="M264,128V112a16.0183,16.0183,0,0,0,16-16h16A32.0364,32.0364,0,0,1,264,128Z"/><polygon points="68 384 77.899 402.101 96 412 77.899 421.899 68 440 58.101 421.899 40 412 58.101 402.101 68 384" style="fill:#fed672"/><path d="M68,448a8,8,0,0,1-7.0186-4.1611l-8.7753-16.045-16.045-8.7749a8,8,0,0,1,0-14.038l16.045-8.7749,8.7753-16.045a8,8,0,0,1,14.0372,0l8.7753,16.045,16.045,8.7749a8,8,0,0,1,0,14.038l-16.045,8.7749-8.7753,16.045A8,8,0,0,1,68,448ZM56.6719,412l5.2676,2.88a8,8,0,0,1,3.18,3.18L68,423.3276l2.8809-5.2671a8,8,0,0,1,3.18-3.18L79.3281,412l-5.2676-2.88a8,8,0,0,1-3.18-3.18L68,400.6724,65.1191,405.94a8,8,0,0,1-3.18,3.18Z"/><polygon points="444 72 453.899 90.101 472 100 453.899 109.899 444 128 434.101 109.899 416 100 434.101 90.101 444 72" style="fill:#fed672"/><path d="M444,136a8,8,0,0,1-7.0186-4.1611l-8.7753-16.045-16.045-8.7749a8,8,0,0,1,0-14.038l16.045-8.7749,8.7753-16.045a8,8,0,0,1,14.0372,0l8.7753,16.045,16.045,8.7749a8,8,0,0,1,0,14.038l-16.045,8.7749-8.7753,16.045A8,8,0,0,1,444,136Zm-11.3281-36,5.2676,2.88a8,8,0,0,1,3.18,3.18L444,111.3276l2.8809-5.2671a8,8,0,0,1,3.18-3.18l5.2676-2.88-5.2676-2.88a8,8,0,0,1-3.18-3.18L444,88.6724,441.1191,93.94a8,8,0,0,1-3.18,3.18Z"/></g></svg>
