<svg height="512" viewBox="0 0 64 64" width="512" xmlns="http://www.w3.org/2000/svg"><g id="flat"><path d="m32 61h-18v-26l3-2h12l3 2z" fill="#f98c96"/><path d="m32 61s-4-4-9-4-9 4-9 4v-26l3-2h12l3 2z" fill="#da1c4b"/><path d="m17 19h12v14h-12z" fill="#2d75bb"/><path d="m18 37h10v12h-10z" fill="#f3e451"/><path d="m25 19h4v14h-4z" fill="#50b4f8"/><path d="m38 3h10v16h-10z" fill="#2d75bb"/><path d="m44 3h4v16h-4z" fill="#50b4f8"/><path d="m36 19h14v38h-14z" fill="#5ac6aa"/><path d="m36 57h14a0 0 0 0 1 0 0v3a1 1 0 0 1 -1 1h-12a1 1 0 0 1 -1-1v-3a0 0 0 0 1 0 0z" fill="#4a9d86"/><path d="m40 23h6v16h-6z" fill="#f3e451"/><g fill="#d1f5c9"><path d="m39 52h2v2h-2z"/><path d="m46 54h-3v-2h2v-4h2v5a1 1 0 0 1 -1 1z"/></g></g></svg>