<?xml version="1.0" encoding="iso-8859-1"?>
<!-- Generator: Adobe Illustrator 19.0.0, SVG Export Plug-In . SVG Version: 6.00 Build 0)  -->
<svg version="1.1" id="Capa_1" xmlns="http://www.w3.org/2000/svg" xmlns:xlink="http://www.w3.org/1999/xlink" x="0px" y="0px"
	 viewBox="0 0 512.002 512.002" style="enable-background:new 0 0 512.002 512.002;" xml:space="preserve">
<path style="fill:#EF717A;" d="M378.724,205.225h-46.209h-85.15h-83.166h-47.123c0,0-40.579,39.939-40.579,86.119
	c0,52.7,29.236,124.112,65.633,170.203c7.831,9.915,15.985,19.186,24.258,27.609c11.829,4.769,27.229,8.471,44.777,10.645
	c11.298,1.402,23.479,2.176,36.199,2.176c13.532,0,26.454-0.877,38.349-2.451c17.44-2.311,32.665-6.139,44.214-11.023
	c7.825-8.038,15.523-16.829,22.917-26.209c36.406-46.188,65.388-117.963,65.388-170.948
	C418.232,245.824,378.724,205.225,378.724,205.225z M362.154,346.582h-16.519h-98.272h-96.288h-18.503v-87.221h16.53h98.261h100.244
	h14.547V346.582z"/>
<g>
	<polygon style="fill:#EFEFEF;" points="149.105,259.362 132.574,259.362 132.574,346.582 151.077,346.582 247.364,346.582 
		345.637,346.582 362.154,346.582 362.154,259.362 347.608,259.362 247.364,259.362 	"/>
	<rect x="208.519" y="28.443" style="fill:#EFEFEF;" width="77.697" height="126.721"/>
</g>
<g>
	<rect x="137.84" y="155.093" style="fill:#FAC51C;" width="219.054" height="50.121"/>
	<circle style="fill:#FAC51C;" cx="395.402" cy="66.87" r="40.101"/>
</g>
<path d="M247.615,56.099h-0.501c-5.537,0-10.025,4.489-10.025,10.025s4.488,10.025,10.025,10.025h0.501
	c5.537,0,10.025-4.489,10.025-10.025S253.152,56.099,247.615,56.099z"/>
<path d="M126.092,78.343h40.091c5.534,0,10.025-4.49,10.025-10.025c0-5.524-4.491-10.025-10.025-10.025h-40.091
	c-5.534,0-10.035,4.501-10.035,10.025C116.057,73.853,120.558,78.343,126.092,78.343z"/>
<path d="M85.981,78.343c5.534,0,10.025-4.49,10.025-10.025c0-5.524-4.491-10.025-10.025-10.025c-5.524,0-10.025,4.501-10.025,10.025
	C75.956,73.853,80.457,78.343,85.981,78.343z"/>
<path d="M166.194,98.394c-0.782,0-1.574,0.091-2.346,0.281l-38.999,9.344c-5.374,1.293-8.692,6.706-7.409,12.091
	c1.083,4.521,5.093,7.689,9.745,7.689c0.782,0,1.574-0.09,2.346-0.28l38.989-9.344c5.384-1.293,8.702-6.707,7.419-12.092
	C174.857,101.563,170.847,98.394,166.194,98.394z"/>
<path d="M88.197,117.092c-0.782,0-1.574,0.09-2.336,0.271c-5.374,1.293-8.702,6.717-7.419,12.092
	c1.093,4.531,5.093,7.689,9.745,7.689c0.782,0,1.574-0.09,2.346-0.281c5.374-1.282,8.702-6.706,7.409-12.081
	C96.858,120.25,92.848,117.092,88.197,117.092z"/>
<path d="M124.859,28.879l39.059,9.103c0.742,0.18,1.514,0.272,2.276,0.272c2.226,0,4.421-0.763,6.186-2.146
	c1.785-1.403,3.058-3.399,3.569-5.614c0.612-2.608,0.17-5.293-1.243-7.569c-1.424-2.277-3.629-3.861-6.246-4.461L129.411,9.36
	c-2.937-0.692-6.105,0.02-8.471,1.875c-1.785,1.403-3.058,3.389-3.569,5.614c-0.612,2.608-0.16,5.293,1.253,7.569
	C120.037,26.693,122.253,28.277,124.859,28.879z"/>
<path d="M85.8,19.786c0.752,0.17,1.524,0.261,2.286,0.261c2.226,0,4.421-0.762,6.186-2.135c1.785-1.404,3.048-3.4,3.569-5.615
	c0.612-2.607,0.16-5.303-1.253-7.569c-1.414-2.276-3.629-3.87-6.236-4.471c-2.937-0.682-6.095,0.02-8.461,1.875
	c-1.795,1.403-3.058,3.399-3.579,5.614C77.058,13.129,80.417,18.533,85.8,19.786z"/>
<path d="M346.286,76.9c4.658,22.853,24.91,40.101,49.118,40.101c27.64,0,50.127-22.487,50.127-50.127s-22.487-50.127-50.127-50.127
	c-24.207,0-44.46,17.249-49.118,40.101h-50.05V28.443c0-5.536-4.488-10.025-10.025-10.025h-77.695
	c-5.537,0-10.025,4.489-10.025,10.025v116.621h-60.653c-5.537,0-10.025,4.489-10.025,10.025v40.11h-10.738
	c-2.632,0-5.157,1.035-7.033,2.88c-1.779,1.751-43.571,43.459-43.571,93.265c0,26.6,6.868,58.153,19.861,91.245
	c12.326,31.393,29.348,61.641,47.93,85.171c8.008,10.14,16.411,19.701,24.973,28.42c0.966,0.983,2.125,1.758,3.405,2.274
	c12.74,5.136,29.094,9.042,47.291,11.296c12.04,1.494,24.635,2.252,37.434,2.252c13.593,0,26.939-0.854,39.665-2.538
	c18.167-2.406,34.35-6.461,46.801-11.727c1.232-0.52,2.347-1.282,3.279-2.24c8.12-8.341,16.062-17.424,23.607-26.996
	c39.136-49.651,67.54-124.155,67.54-177.154c0-49.03-40.62-91.335-42.349-93.113c-1.887-1.94-4.478-3.033-7.185-3.033h-11.808
	v-40.11c0-5.536-4.488-10.025-10.025-10.025h-60.653V76.9H346.286z M395.405,36.799c16.584,0,30.076,13.492,30.076,30.076
	s-13.492,30.076-30.076,30.076s-30.076-13.492-30.076-30.076S378.821,36.799,395.405,36.799z M218.542,38.468h57.644v106.596
	h-57.644L218.542,38.468L218.542,38.468z M172.056,480.608c-7.546-7.794-14.96-16.288-22.058-25.274
	c-36.78-46.576-63.476-115.543-63.476-163.989c0-34.699,26.252-66.564,34.878-76.094h28.137c-3.795,10.859-6.78,22.259-8.935,34.086
	h-8.029c-5.537,0-10.025,4.489-10.025,10.025v87.221c0,5.536,4.488,10.025,10.025,10.025h10.18
	c8.282,41.539,24.817,85.082,49.263,129.789C184.633,484.772,177.907,482.828,172.056,480.608z M237.339,491.778
	c-6.806-0.228-13.512-0.684-20.056-1.371c-26.895-46.311-45.04-91.239-54.056-133.798h74.111V491.778z M142.599,336.557v-67.17
	h209.53v67.17H142.599z M161.024,249.337c2.38-11.931,5.672-23.348,9.882-34.086h66.433v34.086H161.024z M257.389,249.337V215.25
	h68.418c4.21,10.74,7.503,22.157,9.882,34.086H257.389z M279.566,490.176c-7.216,0.817-14.633,1.352-22.176,1.604V356.608h76.096
	C324.485,399.097,306.385,443.948,279.566,490.176z M374.272,215.25c8.518,9.813,33.935,41.96,33.935,76.094
	c0,48.971-26.594,118.255-63.236,164.742c-6.668,8.459-13.657,16.505-20.793,23.938c-5.594,2.226-12.063,4.193-19.199,5.858
	c24.289-44.526,40.73-87.894,48.98-129.275h8.196c5.537,0,10.025-4.489,10.025-10.025v-87.221c0-5.536-4.488-10.025-10.025-10.025
	h-6.05c-2.158-11.829-5.161-23.224-8.965-34.086h27.132V215.25z M346.865,165.114V195.2H147.863v-30.085H346.865z"/>
<g>
</g>
<g>
</g>
<g>
</g>
<g>
</g>
<g>
</g>
<g>
</g>
<g>
</g>
<g>
</g>
<g>
</g>
<g>
</g>
<g>
</g>
<g>
</g>
<g>
</g>
<g>
</g>
<g>
</g>
</svg>
