<svg id="Layer_1" height="512" viewBox="0 0 512 512" width="512" xmlns="http://www.w3.org/2000/svg" data-name="Layer 1"><path d="m349 401h100v29h-100z" fill="#55556d"/><path d="m62 401h100v29h-100z" fill="#55556d"/><path d="m62 401h30v29h-30z" fill="#424251"/><path d="m454 82h-396a30.142 30.142 0 0 0 -30 30.16v261.04a29.834 29.834 0 0 0 30 29.8h396a29.834 29.834 0 0 0 30-29.8v-261.04a30.142 30.142 0 0 0 -30-30.16z" fill="#5d5d84"/><path d="m72.06 131.03h367.88v223.3h-367.88z" fill="#5fa8ed"/><path d="m326.19 185.27a58.3 58.3 0 1 1 -58.3 58.3 58.3 58.3 0 0 1 58.3-58.3z" fill="#6d7486"/><ellipse cx="326.19" cy="243.57" fill="#4a5160" rx="33.58" ry="33.5"/><path d="m61.5 273.68h37.5v48h-37.5z" fill="#55556d"/><path d="m61.5 163.68h37.5v48h-37.5z" fill="#55556d"/><path d="m58 373.2v-261.04a30.142 30.142 0 0 1 30-30.16h-30a30.142 30.142 0 0 0 -30 30.16v261.04a29.834 29.834 0 0 0 30 29.8h30a29.834 29.834 0 0 1 -30-29.8z" fill="#4e4e6d"/><g fill="#284268"><path d="m454 76h-396a36.181 36.181 0 0 0 -36 36.164v261.036a36.041 36.041 0 0 0 33 35.865v20.935c0 3.313 3.687 7 7 7h100c3.313 0 5-3.687 5-7v-21h175v21c0 3.313 3.687 7 7 7h100c3.313 0 5-3.687 5-7v-20.8a36.041 36.041 0 0 0 36-36v-261.036a36.181 36.181 0 0 0 -36-36.164zm-299 349h-88v-16h88zm287 0h-88v-16h88zm36-52a24 24 0 0 1 -24 24h-396a24 24 0 0 1 -24-24v-261a24 24 0 0 1 24-24h396a24 24 0 0 1 24 24z"/><path d="m439.942 125h-367.884a6.079 6.079 0 0 0 -6.058 6.034v26.966h-4.5c-3.313 0-6.5 2.367-6.5 5.68v48a6.726 6.726 0 0 0 6.5 6.32h4.5v50h-4.5c-3.313 0-6.5 2.367-6.5 5.68v48a6.726 6.726 0 0 0 6.5 6.32h4.5v26.326a5.78 5.78 0 0 0 6.058 5.674h367.884a5.78 5.78 0 0 0 6.058-5.674v-223.292a6.079 6.079 0 0 0 -6.058-6.034zm-372.942 45h26v36h-26zm0 146v-36h26v36zm367 32h-356v-20h21a6.282 6.282 0 0 0 6-6.32v-48a5.736 5.736 0 0 0 -6-5.68h-21v-50h21a6.282 6.282 0 0 0 6-6.32v-48a5.736 5.736 0 0 0 -6-5.68h-21v-21h356z"/><path d="m122 173.322a6 6 0 0 0 6-6v-6.907a6 6 0 1 0 -12 0v6.907a6 6 0 0 0 6 6z"/><path d="m122 246.56a6 6 0 0 0 6-6v-49.979a6 6 0 0 0 -12 0v49.979a6 6 0 0 0 6 6z"/><path d="m252.2 250h9.978c2.845 30 27.822 54.727 57.822 57.58v9.544a6 6 0 0 0 12 0v-9.544c31-2.853 55.353-27.58 58.2-57.58h9.6a6 6 0 0 0 0-12h-9.6a64.436 64.436 0 0 0 -58.2-58.445v-9.663a6 6 0 0 0 -12 0v9.663c-30 2.853-54.967 27.445-57.824 58.445h-9.976a6 6 0 0 0 0 12zm73.991-58.734a52.3 52.3 0 1 1 -52.3 52.3 52.362 52.362 0 0 1 52.297-52.3z"/><path d="m326.188 283.065a39.5 39.5 0 1 0 -39.58-39.5 39.583 39.583 0 0 0 39.58 39.5zm0-66.995a27.5 27.5 0 1 1 -27.58 27.5 27.57 27.57 0 0 1 27.58-27.5z"/></g></svg>