<svg id="Layer_1" enable-background="new 0 0 512 512" height="512" viewBox="0 0 512 512" width="512" xmlns="http://www.w3.org/2000/svg"><g><g fill="#dad0d3"><path d="m235.594 130h40v492h-40z" transform="matrix(0 1 -1 0 631.594 120.406)"/><path d="m401.594 396h40v75h-40z" transform="matrix(-1 0 0 -1 843.187 867)"/><path d="m69.594 396h40v75h-40z" transform="matrix(-1 0 0 -1 179.187 867)"/></g><path d="m212.824 201c6.262 38.762 1.937 121.98-25.346 155h-109.029c-27.283-33.02-32.169-116.333-25.346-155 3.885-22.019 21.028-61.254 39.741-80h80c21.587 21.625 36.414 57.926 39.98 80z" fill="#ccf5fc"/><path d="m82.844 200h100v77h-100z" fill="#fff" transform="matrix(0 1 -1 0 371.344 105.656)"/><path d="m92.844 41h80v80h-80z" fill="#aab1c7"/><path d="m170.844 356v-163c0-22.091 17.909-40 40-40h80c22.091 0 40 17.909 40 40v163z" fill="#ffee80"/><path d="m335.844 231h120v130h-120z" fill="#fff" transform="matrix(0 1 -1 0 691.844 -99.844)"/><path d="m355.844 251h40v90h-40z" fill="#fff" transform="matrix(0 1 -1 0 671.844 -79.844)"/><path d="m375.844 151h40v130h-40z" fill="#aab1c7" transform="matrix(0 1 -1 0 611.844 -179.844)"/><path d="m230.844 98h40v70h-40z" fill="#aab1c7" transform="matrix(0 1 -1 0 383.844 -117.844)"/><path d="m280.844 43h-30c-11.046 0-20 8.954-20 20v50h40v-30h30v-20c0-11.046-8.955-20-20-20z" fill="#ffee80"/><path d="m210.844 214.5h80v80h-80z" fill="#fff" transform="matrix(0 1 -1 0 505.344 3.656)"/><g><path d="m501.594 346h-30.594v-150c0-5.523-4.633-10-10.156-10h-120.5c-3.188-22.641-21.344-40.464-44.344-42.749v-30.251c0-5.523-4.633-10-10.156-10h-4.844v-10h19.844c5.523 0 10.156-4.477 10.156-10v-20c0-16.542-13.614-30-30.156-30h-30c-16.542 0-29.844 13.458-29.844 30v40h-5.156c-5.523 0-9.844 4.477-9.844 10v30.251c-1.331.134-2.644.332-3.944.571-1.909-3.409-3.879-6.696-5.938-9.812-4.165-6.313-9.118-12.007-13.118-17.009v-76.001c0-5.523-4.633-10-10.156-10h-80c-5.523 0-9.844 4.477-9.844 10v76.034c-6 6.104-10.955 13.64-16.372 22.926-2.77 4.77-1.228 10.9 3.542 13.68 1.52.88 3.26 1.35 5.01 1.35 3.55 0 6.87-1.9 8.65-4.96.01 0 .01-.01.01-.01 4.33-7.47 8.94-14.05 13.33-19.02h71.4c5.107 5.615 10.156 12.635 14.769 20.452-9.634 6.458-16.968 16.164-20.324 27.548h-68.671c-5.523 0-10.344 3.977-10.344 9.5v100c0 5.523 4.821 10.5 10.344 10.5h66.656v47h-77.59c-6.92-10.07-12.89-25.89-16.8-44.55-4.05-18.99-6.27-41.31-6.27-62.84 0-2.68.04-5.34.11-7.91.07-2.67-.9-5.2-2.74-7.14s-4.32-3.05-6.99-3.12c-2.72-.07-5.3.94-7.24 2.83-1.88 1.83-2.96 4.28-3.03 6.9-.07 2.76-.11 5.6-.11 8.44.01 22.89 2.39 46.69 6.71 67.01 3.481 16.13 7.886 29.491 13.314 40.38h-50.77c-5.523 0-9.594 4.477-9.594 10v40c0 5.523 4.071 10 9.594 10h50.406v65c0 5.523 4.071 10 9.594 10h40c5.523 0 10.406-4.477 10.406-10v-65h272v65c0 5.523 4.071 10 9.594 10h40c5.523 0 10.406-4.477 10.406-10v-65h49.594c5.523 0 10.406-4.477 10.406-10v-40c0-5.523-4.883-10-10.406-10zm-338.594-235h-60v-60h60zm178 95h110v20h-110zm0 80h70v20h-70zm79.844 40c5.523 0 10.156-4.477 10.156-10v-40c0-5.523-4.633-10-10.156-10h-79.844v-20h110v100h-110v-20zm-179.844-263c0-5.514 4.33-10 9.844-10h30c5.514 0 10.156 4.486 10.156 10v10h-20.156c-5.523 0-9.844 4.477-9.844 10v20h-20zm-15 60h50v20h-50zm-122 156v-80h57v80zm77-86c0-16.542 13.302-30 29.844-30h80c16.542 0 30.156 13.458 30.156 30v153h-140zm-81 268h-20v-55h20zm332 0h-20v-55h20zm60-75h-472v-20h472z"/><circle cx="132.844" cy="81" r="10"/><circle cx="56.92" cy="186.06" r="10"/><path d="m291 205h-80c-5.523 0-10 4.477-10 10v80c0 5.523 4.477 10 10 10h80c5.523 0 10-4.477 10-10v-80c0-5.523-4.477-10-10-10zm-10 80h-60v-60h60z"/></g></g></svg>